<svg width="18" height="19" viewBox="0 0 18 19" fill="none" xmlns="http://www.w3.org/2000/svg">
<path d="M14.775 2.82812H3.225C2.6865 2.82812 2.25 3.26463 2.25 3.80313V15.3531C2.25 15.8916 2.6865 16.3281 3.225 16.3281H14.775C15.3135 16.3281 15.75 15.8916 15.75 15.3531V3.80313C15.75 3.26463 15.3135 2.82812 14.775 2.82812ZM6.25425 14.3316H4.25025V7.88912H6.25425V14.3316ZM5.253 7.00863C4.61025 7.00863 4.09125 6.48813 4.09125 5.84763C4.09125 5.20638 4.6095 4.68663 5.253 4.68663C5.8935 4.68663 6.41325 5.20712 6.41325 5.84763C6.41325 6.48887 5.8935 7.00863 5.253 7.00863ZM13.7543 14.3316H11.7525V11.1989C11.7525 10.4519 11.7397 9.49038 10.7122 9.49038C9.6705 9.49038 9.5115 10.3049 9.5115 11.1449V14.3316H7.51125V7.88912H9.4305V8.76962H9.45825C9.72525 8.26337 10.3785 7.72937 11.3527 7.72937C13.38 7.72937 13.755 9.06362 13.755 10.7984L13.7543 14.3316Z" fill="white"/>
</svg>
