<svg width="18" height="19" viewBox="0 0 18 19" fill="none" xmlns="http://www.w3.org/2000/svg">
<path d="M16.35 6.58019C16.35 6.58019 16.2037 5.54669 15.7537 5.09144C15.1837 4.49369 14.544 4.49069 14.2507 4.45619C12.1515 4.30469 9.003 4.30469 9.003 4.30469H8.99625C8.99625 4.30469 5.84775 4.30469 3.7485 4.45619C3.456 4.49144 2.817 4.49444 2.24625 5.09144C1.79625 5.54669 1.65 6.58019 1.65 6.58019C1.65 6.58019 1.5 7.79444 1.5 9.00794V10.1457C1.5 11.3592 1.65 12.5734 1.65 12.5734C1.65 12.5734 1.79625 13.6069 2.24625 14.0622C2.817 14.6599 3.56625 14.6404 3.9 14.7034C5.1 14.8182 9 14.8542 9 14.8542C9 14.8542 12.1522 14.8497 14.2507 14.6974C14.544 14.6622 15.183 14.6592 15.7537 14.0622C16.2037 13.6069 16.35 12.5734 16.35 12.5734C16.35 12.5734 16.5 11.3599 16.5 10.1457V9.00794C16.5 7.79444 16.35 6.58019 16.35 6.58019ZM7.45125 11.5249L7.4505 7.30994L11.5035 9.42494L7.45125 11.5249Z" fill="white"/>
</svg>
